<svg width="237" height="80" viewBox="0 0 237 80" fill="none" xmlns="http://www.w3.org/2000/svg">
<path fill-rule="evenodd" clip-rule="evenodd" d="M42.9274 23.1746C42.9382 22.1037 42.9382 18.8855 42.9382 18.8855C42.9382 18.8855 42.9382 17.8635 42.9382 17.521C42.9382 17.4993 42.9165 17.4286 42.8512 17.4286C42.5088 17.4286 41.4705 17.4286 41.4705 17.4286C41.4705 17.4286 38.2633 17.4286 37.1924 17.4286C37.1217 17.4286 37.1 17.4232 37.1 17.3688C37.1 13.5798 37.1054 3.79476 37.1054 0.0275204C37.1054 0.011212 37.0619 -0.0105325 37.051 0.00577589C36.7412 0.315636 35.8877 1.15824 35.6921 1.35394C35.6703 1.37568 35.6486 1.43004 35.6486 1.44635C35.6486 4.92004 35.6431 13.8951 35.6377 17.4286C35.6377 18.119 35.6377 18.6082 35.6377 18.7985C35.6377 18.8529 35.7029 18.8855 35.7301 18.8855C36.0671 18.8855 37.1 18.8855 37.1 18.8855C37.1 18.8855 40.3181 18.8855 41.3944 18.8855C41.4596 18.8855 41.4705 18.929 41.4705 18.9561C41.4705 20.0271 41.4705 23.267 41.4705 23.267C41.4705 23.267 41.4705 24.2944 41.4705 24.6423C41.4705 24.6641 41.4923 24.7185 41.552 24.7185C45.6617 24.7293 57.5067 24.7348 58.8494 24.7348C58.9309 24.7348 58.9961 24.713 59.0396 24.6641C59.2788 24.4303 60.067 23.6421 60.366 23.3485C60.3878 23.3268 60.3769 23.2779 60.3225 23.2779C56.1803 23.2779 44.145 23.267 43.0252 23.267C42.9545 23.267 42.9274 23.2344 42.9274 23.1746Z" fill="white"/>
<path fill-rule="evenodd" clip-rule="evenodd" d="M34.1584 20.3694C34.1584 20.3694 30.924 23.6039 29.8314 24.6803C29.8259 24.6857 29.8042 24.6694 29.8042 24.6313C29.8042 23.6854 29.8096 11.5085 29.8096 7.32267C29.8096 7.30636 29.8314 7.20851 29.8803 7.15959C30.3532 6.68121 33.131 3.91421 34.1095 2.93571C34.1312 2.9194 34.1856 2.93571 34.1856 2.95202C34.1856 6.95845 34.1802 18.3526 34.1802 20.1139C34.1802 20.1737 34.1747 20.2226 34.1802 20.2552C34.1802 20.315 34.1965 20.315 34.1965 20.315C34.1965 20.315 34.1693 20.3585 34.1584 20.3694Z" fill="white"/>
<path fill-rule="evenodd" clip-rule="evenodd" d="M29.8914 24.7132C31.1036 24.7132 34.9197 24.7132 35.4796 24.7132C35.5231 24.7132 35.5285 24.7132 35.5448 24.7132C35.6046 24.7132 35.6155 24.7295 35.6155 24.7295L35.6699 24.6752C35.6699 24.6752 38.9097 21.4678 39.9915 20.3752C39.9969 20.3643 39.9534 20.3426 39.9262 20.3426C38.6651 20.3426 35.2187 20.3426 34.3707 20.3426C34.3217 20.3426 34.2946 20.3426 34.2619 20.3426C34.2239 20.3426 34.1967 20.3099 34.1967 20.3099C34.1967 20.3099 34.1532 20.3643 34.1424 20.3752C33.7836 20.7394 30.8481 23.6586 29.8262 24.6752C29.8262 24.686 29.8697 24.7132 29.8914 24.7132Z" fill="white"/>
<path fill-rule="evenodd" clip-rule="evenodd" d="M40.0185 26.1753C40.0185 26.1753 36.746 29.4315 35.6588 30.5133C35.6588 30.5187 35.6262 30.4861 35.6262 30.4752C35.6317 29.0836 35.6317 24.8978 35.6317 24.8978C35.6317 24.8978 35.6262 24.8434 35.6262 24.789C35.6262 24.7619 35.6154 24.7347 35.6154 24.7347L35.6317 24.7184C35.6317 24.7184 38.8933 21.4621 39.9913 20.3803C39.9968 20.3695 40.0185 20.4184 40.0185 20.4347C40.0185 21.6035 40.0185 25.1805 40.0185 25.9469C40.0185 26.0394 40.0185 26.0557 40.0185 26.0937C40.0185 26.1318 40.0294 26.159 40.0294 26.159L40.0185 26.1753Z" fill="white"/>
<path fill-rule="evenodd" clip-rule="evenodd" d="M53.0539 30.5623C48.8899 30.5569 36.7296 30.5406 35.7022 30.5406C35.6859 30.5406 35.6587 30.5243 35.6642 30.5188C36.7514 29.4316 40.0238 26.1808 40.0238 26.1808L40.0347 26.1591C40.0347 26.1591 40.0619 26.1808 40.0999 26.1808C40.1271 26.1808 40.2467 26.1808 40.2467 26.1808C40.2467 26.1808 53.5268 26.1862 57.4136 26.1862C57.4407 26.1862 57.4625 26.246 57.4462 26.2623C56.4514 27.2517 53.6084 30.0894 53.1844 30.508C53.1572 30.5351 53.0756 30.5623 53.0539 30.5623Z" fill="white"/>
<path fill-rule="evenodd" clip-rule="evenodd" d="M51.6024 32.0139C47.9875 32.0139 40.1597 32.0084 34.267 32.0084C34.2127 32.0084 34.1746 31.9595 34.1746 31.916C34.1746 30.8451 34.1801 27.6378 34.1801 27.6378C34.1801 27.6378 34.1801 26.6049 34.1801 26.257C34.1801 26.219 34.1475 26.1809 34.0985 26.1809C33.7506 26.1809 32.7178 26.1809 32.7178 26.1809C32.7178 26.1809 29.5051 26.1809 28.4342 26.1809C28.3907 26.1809 28.3418 26.1483 28.3418 26.0885C28.3418 24.9306 28.3527 12.9167 28.3527 8.77983C28.3527 8.75265 28.3146 8.73091 28.2766 8.75265C27.9776 9.06251 27.1676 9.87249 26.9556 10.0845C26.9121 10.1171 26.8904 10.2095 26.8904 10.2313C26.885 14.0094 26.885 24.9741 26.885 26.0831C26.885 26.1429 26.8524 26.1755 26.8034 26.1755C25.7054 26.17 14.779 26.1592 11.0173 26.1592C10.9031 26.1592 10.8107 26.1972 10.7509 26.2461C10.49 26.5071 9.75072 27.2464 9.47348 27.5236C9.44087 27.5617 9.46261 27.6106 9.52784 27.6106C13.6538 27.616 25.651 27.6324 26.7926 27.6324C26.8578 27.6324 26.8904 27.6704 26.8904 27.7139C26.9013 29.0131 26.8904 32.7369 26.8904 33.362C26.8904 33.4273 26.9339 33.4545 26.9828 33.4545C27.4177 33.4545 29.6519 33.4599 32.6308 33.4599C32.6689 33.4599 32.7123 33.4925 32.7123 33.5306C32.7069 42.5545 32.6906 68.8002 32.6906 71.1812C32.6906 71.2737 32.7667 71.2682 32.7939 71.241C32.8156 71.2247 32.8156 71.2193 32.8156 71.2193L34.0985 69.9418C34.0985 69.9418 34.1148 69.9255 34.1203 69.9201C34.142 69.8983 34.1474 69.8494 34.1474 69.8331C34.1529 68.7132 34.1692 42.4404 34.1692 33.5469C34.1692 33.4925 34.2236 33.4599 34.2562 33.4599C39.7411 33.4599 46.797 33.4599 50.0966 33.4599C50.1238 33.4599 50.238 33.4436 50.2706 33.4164C50.4935 33.1881 51.3252 32.3618 51.6187 32.0574C51.635 32.0519 51.635 32.0139 51.6024 32.0139ZM28.3364 31.9106C28.3364 31.3887 28.3418 28.7033 28.3418 27.7411C28.3418 27.665 28.3636 27.6324 28.4451 27.6324C29.3964 27.6324 32.0981 27.6324 32.6254 27.6324C32.6852 27.6324 32.7178 27.6704 32.7178 27.7139C32.7178 28.6815 32.7123 31.3942 32.7123 31.916C32.7123 31.9704 32.6689 32.0084 32.6199 32.0084C30.9076 32.003 29.4508 32.003 28.4234 32.003C28.3853 31.9976 28.3364 31.965 28.3364 31.9106Z" fill="white"/>
<path fill-rule="evenodd" clip-rule="evenodd" d="M3.69588 33.438C7.99031 33.4488 20.879 33.4543 20.879 33.4543C20.879 33.4543 20.9388 33.4543 20.9606 33.4543C21.0095 33.4543 21.0313 33.476 21.0313 33.476L21.053 33.4543C21.053 33.4543 24.3146 30.1872 25.4018 29.1054C25.4072 29.1054 25.38 29.0836 25.3583 29.0836C21.3194 29.0836 9.72983 29.0728 8.10991 29.0728C7.98488 29.0728 7.88159 29.1054 7.80549 29.1815C6.86506 30.1219 4.27753 32.715 3.67957 33.3129C3.58716 33.389 3.66326 33.438 3.69588 33.438Z" fill="white"/>
<path fill-rule="evenodd" clip-rule="evenodd" d="M21.0576 39.2599C22.1503 38.1673 25.4173 34.911 25.4173 34.911L25.4499 34.8893C25.4499 34.8893 25.4173 34.8567 25.4173 34.8186C25.4173 34.8023 25.4173 34.7316 25.4173 34.7316C25.4173 34.7316 25.4173 30.4153 25.4227 29.1487C25.4227 29.1378 25.401 29.1052 25.3956 29.1052C24.3138 30.1925 21.0468 33.4541 21.0468 33.4541L21.025 33.4759C21.025 33.4759 21.0468 33.4922 21.0468 33.5357C21.0468 33.5629 21.0468 33.5683 21.0468 33.6227C21.0468 34.2478 21.0359 37.9987 21.0359 39.211C21.0359 39.2273 21.0576 39.2599 21.0576 39.2599Z" fill="white"/>
<path fill-rule="evenodd" clip-rule="evenodd" d="M31.1851 34.9113C29.9185 34.9113 25.5969 34.9113 25.5969 34.9113C25.5969 34.9113 25.5317 34.9113 25.5045 34.9113C25.461 34.9113 25.4501 34.8895 25.4501 34.8895L25.4175 34.9113C25.4175 34.9113 22.1559 38.1675 21.0579 39.2602C21.0579 39.2602 21.085 39.2765 21.0959 39.2765C22.3136 39.2765 26.0372 39.2874 26.7004 39.2874C26.7657 39.2874 26.7765 39.2765 26.8037 39.2874C26.82 39.2928 26.8472 39.3091 26.8472 39.3091L26.8798 39.2874L31.234 34.9439C31.234 34.9385 31.2014 34.9113 31.1851 34.9113Z" fill="white"/>
<path fill-rule="evenodd" clip-rule="evenodd" d="M26.9776 77.0414C27.581 76.438 30.212 73.8123 31.1742 72.8556C31.2013 72.8229 31.2285 72.7631 31.2285 72.7251C31.234 63.2825 31.2503 34.982 31.2503 34.982C31.2503 34.982 31.234 34.9385 31.2285 34.944C30.1359 36.0312 26.8743 39.2874 26.8743 39.2874L26.8417 39.3092C26.8417 39.3092 26.8743 39.3363 26.8743 39.369C26.8743 39.3907 26.8743 39.4614 26.8743 39.4614C26.8743 39.4614 26.8525 67.6151 26.8471 76.9925C26.8525 77.0468 26.9123 77.1121 26.9776 77.0414Z" fill="white"/>
<path fill-rule="evenodd" clip-rule="evenodd" d="M25.3904 78.5635C25.3904 78.5418 25.3904 78.52 25.3904 78.4874C25.3904 76.3782 25.4067 49.877 25.4121 40.8041C25.4121 40.7661 25.3741 40.7334 25.336 40.7334C24.9936 40.7334 23.9553 40.7334 23.9553 40.7334C23.9553 40.7334 20.7372 40.7226 19.6609 40.7226C19.612 40.7226 19.5739 40.6954 19.5739 40.6465C19.5739 39.5755 19.5848 36.3573 19.5848 36.3573C19.5848 36.3573 19.5848 35.3027 19.5848 34.9548C19.5848 34.9385 19.5576 34.8896 19.5195 34.8896C19.3456 34.8896 18.8509 34.8896 18.1225 34.8896C14.5891 34.8896 5.63057 34.8842 2.17328 34.8842C2.15154 34.8842 2.07001 34.8842 1.9939 34.9548C1.7221 35.2429 1.02629 35.9279 0.743622 36.2106C0.672954 36.2921 0.743623 36.341 0.787111 36.341C4.53795 36.341 14.301 36.3519 18.0573 36.3519C18.0844 36.3519 18.1225 36.3845 18.1225 36.4171C18.1225 37.4935 18.1225 40.7226 18.1225 40.7226C18.1225 40.7226 18.1225 41.7446 18.117 42.0979C18.117 42.1414 18.166 42.1849 18.204 42.1849C18.5519 42.1849 19.5739 42.1903 19.5739 42.1903C19.5739 42.1903 22.8029 42.1903 23.8738 42.1903C23.9118 42.1903 23.9553 42.2338 23.9553 42.2773C23.9553 51.3448 23.9336 77.8133 23.9281 79.9334C23.9281 80.0095 23.9825 80.0204 24.0423 79.966C24.325 79.6834 25.0588 78.9549 25.3415 78.6722C25.385 78.6287 25.3904 78.607 25.3904 78.5635Z" fill="white"/>
<path d="M113.112 35.747C113.749 35.9056 114.405 35.967 115.062 35.967C115.729 35.967 116.411 35.9158 117.062 35.7828C117.613 35.655 118.163 35.476 118.643 35.1896C119.047 34.9594 119.401 34.6628 119.663 34.2843C119.916 33.911 120.017 33.4967 120.017 33.0518V25.8814C120.017 25.4416 119.911 25.0171 119.658 24.6386C119.401 24.2448 119.062 23.938 118.658 23.6925C118.194 23.4112 117.663 23.222 117.138 23.0941C116.491 22.9509 115.825 22.8895 115.163 22.8895C114.511 22.8895 113.86 22.9458 113.218 23.0941C112.673 23.2168 112.158 23.4214 111.663 23.6925C111.44 23.8255 111.198 24.0045 111.006 24.2039L113.092 24.925C113.208 24.7921 113.355 24.654 113.491 24.5619C113.996 24.2653 114.582 24.1528 115.163 24.1528C115.754 24.1528 116.39 24.2551 116.895 24.5619C117.355 24.8586 117.598 25.2728 117.598 25.8047V26.7253L117.396 26.7969C116.254 27.1447 115.123 27.5231 114.006 27.963C113.228 28.275 112.435 28.6585 111.769 29.1649C111.238 29.574 110.799 30.0599 110.511 30.6583C110.198 31.318 110.102 32.0698 110.102 32.7909C110.102 33.2666 110.208 33.732 110.476 34.136C110.743 34.5452 111.107 34.8725 111.531 35.1282C112.016 35.4146 112.562 35.6243 113.112 35.747ZM112.708 31.2873C112.845 30.8373 113.102 30.4434 113.441 30.1161C113.845 29.7223 114.365 29.4206 114.88 29.1904C115.612 28.8631 116.4 28.6023 117.178 28.367L117.603 28.2443L117.658 32.9495C117.658 33.5121 117.375 33.9417 116.87 34.2179C116.34 34.5145 115.729 34.6168 115.123 34.6168C114.501 34.6168 113.91 34.5503 113.38 34.2383C112.784 33.8905 112.592 33.2308 112.592 32.5813C112.587 32.1056 112.572 31.7425 112.708 31.2873Z" fill="white"/>
<path d="M158.703 35.7879C159.263 35.66 159.804 35.481 160.294 35.1946C160.693 34.9644 161.046 34.6678 161.304 34.2893C161.551 33.916 161.658 33.5017 161.658 33.0568L161.663 25.8864C161.663 25.4466 161.557 25.0221 161.304 24.6436C161.051 24.2498 160.708 23.943 160.304 23.6975C159.839 23.4162 159.314 23.227 158.783 23.0991C158.137 22.9559 157.47 22.8945 156.814 22.8945C156.162 22.8945 155.505 22.9508 154.864 23.0991C154.318 23.2219 153.803 23.4264 153.318 23.6975C153.086 23.8305 152.849 24.0095 152.657 24.2089L154.743 24.93C154.864 24.7971 155 24.659 155.142 24.5669C155.647 24.2703 156.233 24.1578 156.819 24.1578C157.405 24.1578 158.046 24.2601 158.546 24.5669C159.011 24.8636 159.248 25.2778 159.248 25.8097V26.7303L159.036 26.8019C157.905 27.1497 156.768 27.5281 155.662 27.968C154.874 28.28 154.091 28.6635 153.414 29.1699C152.889 29.579 152.444 30.0649 152.167 30.6633C151.843 31.323 151.752 32.0748 151.752 32.7959C151.752 33.2716 151.853 33.737 152.121 34.141C152.389 34.5502 152.753 34.8775 153.172 35.1332C153.657 35.4196 154.197 35.6293 154.753 35.7521C155.394 35.9106 156.046 35.972 156.702 35.972C157.369 35.9669 158.046 35.9157 158.703 35.7879ZM154.227 32.576C154.227 32.1055 154.217 31.7424 154.359 31.2872C154.49 30.8371 154.748 30.4433 155.086 30.116C155.49 29.7222 156.01 29.4205 156.526 29.1903C157.263 28.863 158.046 28.6022 158.824 28.3669L159.243 28.2442L159.304 32.9494C159.304 33.512 159.011 33.9416 158.506 34.2177C157.97 34.5144 157.369 34.6167 156.758 34.6167C156.147 34.6167 155.546 34.5502 155.02 34.2382C154.424 33.8904 154.227 33.2256 154.227 32.576Z" fill="white"/>
<path d="M235.085 23.6975C234.615 23.4162 234.09 23.227 233.554 23.0991C232.913 22.9559 232.246 22.8945 231.589 22.8945C230.938 22.8945 230.276 22.9508 229.64 23.0991C229.094 23.2219 228.579 23.4264 228.084 23.6975C227.862 23.8305 227.614 24.0095 227.432 24.2089L229.519 24.93C229.635 24.7971 229.776 24.659 229.918 24.5669C230.413 24.2703 231.009 24.1578 231.589 24.1578C232.18 24.1578 232.807 24.2601 233.317 24.5669C233.777 24.8636 234.019 25.2778 234.019 25.8097V26.7303L233.807 26.8019C232.67 27.1497 231.544 27.5281 230.433 27.968C229.65 28.28 228.857 28.6635 228.19 29.1699C227.66 29.579 227.225 30.0649 226.937 30.6633C226.624 31.323 226.528 32.0748 226.528 32.7959C226.528 33.2716 226.634 33.737 226.902 34.141C227.17 34.5502 227.528 34.8775 227.953 35.1332C228.443 35.4196 228.978 35.6293 229.539 35.7521C230.17 35.9106 230.822 35.972 231.483 35.972C232.155 35.972 232.827 35.9208 233.489 35.7879C234.034 35.66 234.58 35.481 235.07 35.1946C235.474 34.9644 235.822 34.6678 236.08 34.2893C236.332 33.916 236.433 33.5017 236.433 33.0568L236.444 25.8864C236.444 25.4466 236.327 25.0221 236.08 24.6436C235.827 24.2498 235.489 23.943 235.085 23.6975ZM233.297 34.2177C232.756 34.5144 232.145 34.6167 231.539 34.6167C230.928 34.6167 230.332 34.5502 229.806 34.2382C229.21 33.8904 229.008 33.2307 229.008 32.5811C229.008 32.1106 228.998 31.7475 229.13 31.2923C229.271 30.8423 229.524 30.4485 229.862 30.1211C230.266 29.7273 230.786 29.4256 231.297 29.1954C232.039 28.8681 232.827 28.6073 233.605 28.372L234.024 28.2493L234.075 32.9545C234.07 33.512 233.787 33.9416 233.297 34.2177Z" fill="white"/>
<path d="M65.5459 35.6751H67.9148L67.9199 18.0817H65.5661L65.5459 35.6751Z" fill="white"/>
<path d="M139.11 33.9264H136.488C133.053 33.8343 131.614 31.6761 131.129 30.8629C130.639 30.0497 130.078 28.3722 130.24 26.9453L137.796 26.9555V25.4365L130.245 25.4263C130.179 24.5364 130.664 23.3141 131.23 22.5878C131.801 21.8565 132.589 21.2377 133.609 20.7313C134.624 20.2301 135.811 19.9386 137.165 19.8823H138.271V18.0054H137.266C136.008 18.0054 134.66 18.2509 133.225 18.7521C131.786 19.2584 130.518 20.1381 129.427 21.432C128.331 22.7004 127.75 24.3932 127.669 26.5413C127.664 29.5178 128.891 32.1364 130.174 33.374C130.881 34.0491 132.927 35.6755 136.508 35.6755H139.145L139.11 33.9264Z" fill="white"/>
<path d="M205.445 18.7622L203.021 19.2532L203.01 35.6754H205.435L205.445 18.7622Z" fill="white"/>
<path d="M88.3417 23.1961C88.0538 23.3495 87.7205 23.5592 87.5184 23.7996L87.2608 24.1218L86.3971 23.0784H84.8717L84.8616 35.6751H87.281V26.009C87.281 25.4566 87.574 25.0372 88.0336 24.7304C88.5185 24.4031 89.064 24.2496 89.65 24.2496C89.9076 24.2496 90.1955 24.2701 90.448 24.3417L91.2006 23.1091C90.7865 22.9403 90.2561 22.9045 89.8217 22.9045C89.3267 22.9045 88.7913 22.9659 88.3417 23.1961Z" fill="white"/>
<path d="M211.527 23.0786H209.112V35.6753H211.527V23.0786Z" fill="white"/>
<path d="M210.325 21.1504C210.684 21.1504 210.997 21.0327 211.255 20.7668C211.497 20.5111 211.608 20.1991 211.608 19.8513C211.608 19.4933 211.492 19.212 211.255 18.9461C211.002 18.6801 210.694 18.5625 210.33 18.5625C209.966 18.5625 209.653 18.6801 209.411 18.9563C209.189 19.2171 209.057 19.4984 209.052 19.8462C209.052 20.2042 209.163 20.506 209.411 20.7719C209.653 21.0379 209.966 21.1504 210.325 21.1504Z" fill="white"/>
<path d="M81.3412 36.9081L81.3463 23.4164H79.3764L79.3107 23.3857C78.9925 23.2578 78.6743 23.1504 78.3409 23.0737C77.7045 22.9305 77.0428 22.8691 76.3912 22.8691C75.7245 22.8691 75.0426 22.9305 74.3859 23.0686C73.8404 23.1862 73.2899 23.3806 72.7999 23.6721C72.4009 23.9074 72.0473 24.2142 71.7897 24.5876C71.5422 24.9456 71.4311 25.3445 71.4311 25.7741L71.426 32.9444C71.426 33.3792 71.5422 33.7934 71.7897 34.177C72.0423 34.5657 72.3857 34.8726 72.7949 35.1129C73.2848 35.4045 73.8303 35.5937 74.3809 35.7164C75.0325 35.8699 75.7093 35.9466 76.3811 35.9466C77.0327 35.9466 77.6843 35.8699 78.3157 35.7164C78.3813 35.7062 78.4419 35.6857 78.5076 35.6653L78.9167 35.5528L78.9117 36.903C78.9117 37.4655 78.6288 37.8952 78.1288 38.1713C77.5934 38.468 76.9822 38.5703 76.3811 38.5703C76.0023 38.5703 75.6133 38.5293 75.2446 38.4015L74.6739 39.7619C75.2295 39.8846 75.8154 39.9153 76.3811 39.9153C77.0832 39.9153 77.7752 39.8488 78.452 39.675C78.9976 39.542 79.5481 39.3272 80.0179 39.0152C80.3967 38.7595 80.7452 38.4373 80.9927 38.0537C81.2251 37.7008 81.3412 37.3223 81.3412 36.9081ZM78.9218 32.9598C78.9218 33.5121 78.6086 33.9315 78.1086 34.1924C77.5833 34.4788 76.9822 34.6015 76.3862 34.6015C75.78 34.6015 75.1588 34.4839 74.6385 34.1924C74.1435 33.9213 73.8556 33.507 73.8556 32.9496L73.8606 25.7792C73.8606 25.2166 74.1384 24.787 74.6435 24.5109C75.1739 24.2142 75.7901 24.117 76.3963 24.117C76.9973 24.117 77.5934 24.2193 78.1237 24.5109C78.6288 24.7819 78.9319 25.2115 78.9319 25.769L78.9218 32.9598Z" fill="white"/>
<path d="M93.8475 35.1639C94.3172 35.4452 94.8476 35.6395 95.378 35.7623C96.0245 35.9157 96.6811 35.9669 97.3428 35.9669C97.9994 35.9669 98.651 35.9055 99.2925 35.7623C99.8279 35.6446 100.363 35.4554 100.833 35.169C101.237 34.9235 101.576 34.6167 101.838 34.2229C102.091 33.8444 102.202 33.4199 102.202 32.9698V32.4789L99.7471 32.9749C99.7471 33.512 99.4946 33.9365 99.0147 34.2126C98.5248 34.5195 97.9287 34.6218 97.3479 34.6218C96.7569 34.6218 96.1255 34.5348 95.6204 34.2126C95.1557 33.9313 94.9133 33.5068 94.9133 32.9749V32.1311L95.1203 32.0646C96.2619 31.7117 97.3933 31.3332 98.5045 30.8985C99.2875 30.5968 100.086 30.2132 100.747 29.6966C101.278 29.2926 101.717 28.7965 102.005 28.2032C102.318 27.5435 102.409 26.7866 102.419 26.0654C102.419 25.5847 102.303 25.1346 102.04 24.7306C101.773 24.3266 101.409 23.989 100.995 23.7384C100.505 23.4315 99.9643 23.2423 99.4087 23.1042C98.7723 22.9559 98.1156 22.8945 97.464 22.8945C96.7973 22.8945 96.1154 22.9457 95.4588 23.0889C94.9133 23.2065 94.3627 23.3804 93.8727 23.6617C93.4737 23.8816 93.1201 24.1885 92.8676 24.5618C92.61 24.9352 92.5039 25.3494 92.5039 25.7893V32.9596C92.5039 33.4097 92.61 33.8342 92.8625 34.2126C93.11 34.6064 93.4485 34.9286 93.8475 35.1639ZM94.9234 25.8046C94.9234 25.2369 95.2062 24.8073 95.7113 24.5311C96.2467 24.2396 96.8579 24.1271 97.459 24.1373C98.0651 24.1373 98.6712 24.2601 99.1965 24.5669C99.7976 24.93 99.9946 25.5182 99.9946 26.1728C99.9946 26.6485 99.9492 27.119 99.8128 27.5742C99.6814 28.0242 99.4188 28.4129 99.0753 28.7454C98.6813 29.1392 98.156 29.4307 97.6408 29.6711C96.9084 30.0035 96.1205 30.2694 95.3426 30.4894L94.9183 30.6172L94.9234 25.8046Z" fill="white"/>
<path d="M106.637 38.9688C107.021 38.7131 107.364 38.4011 107.612 38.0073C107.844 37.6647 107.95 37.276 107.95 36.8668L107.96 23.0938L105.541 23.0836L105.531 36.8617C105.531 37.4294 105.258 37.859 104.748 38.1352C104.222 38.4267 103.606 38.529 103 38.529C102.616 38.529 102.227 38.4779 101.858 38.3551L101.293 39.7104C101.843 39.8434 102.434 39.8792 103 39.8792C103.697 39.8792 104.399 39.8025 105.071 39.6388C105.616 39.4905 106.167 39.2808 106.637 38.9688Z" fill="white"/>
<path d="M106.727 21.4372C107.081 21.4372 107.394 21.3298 107.652 21.0588C107.899 20.7928 108.005 20.486 108.005 20.1331C108.005 19.7802 107.889 19.4835 107.652 19.238C107.394 18.967 107.091 18.8442 106.727 18.8442C106.364 18.8442 106.056 18.967 105.813 19.238C105.586 19.4938 105.455 19.7751 105.455 20.1279C105.455 20.486 105.566 20.7979 105.803 21.0639C106.061 21.3298 106.369 21.4372 106.727 21.4372Z" fill="white"/>
<path d="M223.331 35.2813C223.74 35.0614 224.099 34.7647 224.366 34.3863C224.634 33.9925 224.735 33.522 224.735 33.0617V32.7753L222.316 32.765V33.0565C222.316 33.6294 222.018 34.0539 221.508 34.33C220.977 34.6164 220.381 34.7341 219.78 34.7341C219.179 34.7341 218.563 34.6164 218.032 34.3249C217.532 34.059 217.244 33.6242 217.25 33.0565V25.8862C217.25 25.3287 217.537 24.9145 218.048 24.6332C218.573 24.3366 219.184 24.2394 219.795 24.2394C220.386 24.2394 220.987 24.3417 221.523 24.6281C222.028 24.894 222.326 25.3236 222.326 25.8862L224.745 26.3823V25.8862C224.745 25.431 224.634 24.9707 224.366 24.5769C224.109 24.1933 223.74 23.8865 223.331 23.6615C222.831 23.3904 222.29 23.2114 221.74 23.0938C221.098 22.9557 220.442 22.8994 219.795 22.8994C219.123 22.8994 218.447 22.9557 217.79 23.104C217.239 23.2267 216.694 23.4211 216.209 23.7024C215.8 23.9376 215.446 24.2445 215.189 24.6281C214.936 25.0065 214.83 25.4464 214.83 25.8913V33.0617C214.83 33.5271 214.921 34.0078 215.189 34.4119C215.441 34.7903 215.785 35.0716 216.189 35.2864C216.674 35.5575 217.224 35.7058 217.77 35.803C218.437 35.9257 219.113 35.9717 219.785 35.9717C220.442 35.9717 221.093 35.9257 221.745 35.803C222.296 35.7058 222.836 35.5472 223.331 35.2813Z" fill="white"/>
<path d="M198.02 19.1559H195.308L193.682 21.263L195.636 21.2732L198.02 19.1559Z" fill="white"/>
<path d="M192.621 32.0646C193.757 31.7066 194.883 31.3332 195.995 30.8985C196.783 30.5968 197.576 30.2132 198.242 29.6966C198.768 29.2926 199.212 28.7965 199.5 28.2032C199.818 27.5435 199.904 26.7866 199.904 26.0654C199.904 25.5949 199.798 25.1346 199.53 24.7306C199.263 24.3266 198.894 23.989 198.48 23.7384C198 23.4315 197.449 23.2423 196.899 23.1093C196.267 22.9559 195.606 22.8945 194.954 22.8945C194.277 22.8945 193.606 22.9457 192.949 23.0889C192.403 23.1963 191.848 23.3804 191.363 23.6617C190.964 23.8867 190.615 24.1885 190.353 24.5618C190.1 24.9352 189.999 25.3494 189.999 25.7893L189.989 32.9596C189.989 33.4097 190.1 33.8342 190.353 34.2126C190.605 34.6013 190.949 34.9235 191.348 35.1588C191.812 35.4401 192.338 35.6344 192.873 35.7572C193.52 35.9106 194.181 35.9617 194.843 35.9617C195.495 35.9617 196.146 35.9004 196.793 35.7572C197.328 35.6395 197.859 35.4503 198.338 35.1639C198.737 34.9184 199.086 34.6115 199.338 34.2177C199.576 33.8393 199.692 33.4148 199.692 32.9647V32.4789L197.247 32.975C197.247 33.512 196.995 33.9365 196.515 34.2177C196.02 34.5144 195.424 34.6218 194.843 34.6218C194.252 34.6218 193.616 34.5348 193.111 34.2126C192.651 33.9313 192.414 33.5068 192.414 32.975V32.1362L192.621 32.0646ZM192.414 25.8046C192.414 25.2369 192.696 24.8073 193.196 24.5311C193.737 24.2396 194.348 24.1271 194.954 24.1373C195.565 24.1373 196.166 24.2601 196.687 24.5669C197.288 24.93 197.485 25.5182 197.485 26.1728C197.485 26.6485 197.439 27.119 197.308 27.5742C197.167 28.0242 196.919 28.4129 196.576 28.7454C196.171 29.1392 195.646 29.4307 195.131 29.6711C194.394 30.0035 193.611 30.2694 192.828 30.4894L192.408 30.6172L192.414 25.8046Z" fill="white"/>
<path d="M187.049 38.0588C187.272 37.711 187.388 37.3223 187.388 36.9081L187.393 23.4164H185.428L185.362 23.3857C185.044 23.2629 184.721 23.1504 184.393 23.0737C183.751 22.9305 183.104 22.8691 182.448 22.8691C181.771 22.8691 181.099 22.9305 180.448 23.0737C179.897 23.1965 179.347 23.3806 178.862 23.6721C178.458 23.9074 178.109 24.2142 177.846 24.5978C177.604 24.9456 177.488 25.3496 177.488 25.7792L177.483 32.9496C177.483 33.3843 177.604 33.7985 177.841 34.1821C178.094 34.5708 178.447 34.8777 178.852 35.1283C179.336 35.4147 179.887 35.6039 180.443 35.7267C181.094 35.8852 181.766 35.9568 182.433 35.9568C183.094 35.9568 183.746 35.8903 184.382 35.7267C184.443 35.7164 184.509 35.696 184.564 35.6857L184.978 35.5681V36.9183C184.978 37.486 184.685 37.9156 184.185 38.1969C183.655 38.4884 183.039 38.5856 182.433 38.5856C182.049 38.5856 181.66 38.5344 181.296 38.4117L180.73 39.7772C181.286 39.9 181.872 39.9358 182.433 39.9358C183.13 39.9358 183.832 39.8693 184.509 39.6852C185.049 39.5522 185.61 39.3425 186.074 39.0254C186.458 38.7595 186.797 38.4424 187.049 38.0588ZM184.978 32.9598C184.978 33.5121 184.665 33.9315 184.175 34.1975C183.635 34.4788 183.039 34.5964 182.438 34.5964C181.837 34.5964 181.225 34.489 180.695 34.1872C180.205 33.9162 179.907 33.5019 179.907 32.9444L179.912 25.7741C179.912 25.2115 180.195 24.7921 180.7 24.5057C181.231 24.2091 181.837 24.1119 182.448 24.1119C183.044 24.1119 183.645 24.2142 184.175 24.5057C184.685 24.7819 184.978 25.2064 184.978 25.7741V32.9598Z" fill="white"/>
<path d="M171.346 24.5311C171.881 24.7971 172.24 25.2113 172.24 25.8097L172.23 35.6753H174.644L174.649 25.7483C174.649 24.8431 174.22 24.1885 173.447 23.6924C172.472 23.0735 171.26 22.8996 170.119 22.8945C169.487 22.8945 168.775 22.9303 168.169 23.0991C167.75 23.2219 167.34 23.3906 166.987 23.631L166.76 23.7947L165.956 23.0684L164.401 23.0633L164.391 35.6753H166.815L166.82 25.8097C166.82 25.2062 167.184 24.792 167.729 24.5311C168.295 24.2601 168.901 24.1424 169.528 24.1424C170.159 24.1424 170.78 24.255 171.346 24.5311Z" fill="white"/>
<path d="M145.085 33.8908L141.504 23.0688H139.453L143.666 35.6758H146.509L151.384 23.0791H148.737L145.085 33.8908Z" fill="white"/>
<path d="M137.146 49.1827C136.681 48.9014 136.156 48.7173 135.62 48.5843C134.979 48.436 134.312 48.3798 133.645 48.3798C133.004 48.3798 132.347 48.4462 131.7 48.5843C131.15 48.7071 130.635 48.9117 130.145 49.1827C129.923 49.3157 129.68 49.4947 129.498 49.6839L131.579 50.4102C131.695 50.2823 131.837 50.134 131.978 50.0573C132.483 49.7504 133.064 49.6481 133.64 49.6481C134.241 49.6481 134.867 49.7453 135.378 50.0624C135.837 50.3437 136.08 50.7579 136.08 51.3001V52.2104L135.873 52.2769C134.736 52.64 133.605 53.0185 132.488 53.4532C131.706 53.7601 130.913 54.1488 130.251 54.6551C129.72 55.054 129.281 55.545 128.993 56.1434C128.675 56.8031 128.584 57.5652 128.584 58.2761C128.584 58.7517 128.69 59.212 128.958 59.6109C129.225 60.0252 129.589 60.3525 130.008 60.598C130.493 60.8997 131.044 61.1043 131.594 61.2322C132.231 61.3805 132.887 61.4521 133.539 61.4521C134.216 61.4521 134.888 61.3907 135.544 61.2526C136.1 61.135 136.64 60.9611 137.125 60.6747C137.524 60.4446 137.878 60.1479 138.141 59.7643C138.393 59.3859 138.494 58.9767 138.494 58.5318L138.499 51.3717C138.499 50.9216 138.393 50.492 138.141 50.1084C137.888 49.7351 137.545 49.4282 137.146 49.1827ZM135.347 59.703C134.812 59.9996 134.206 60.1019 133.6 60.1019C132.989 60.1019 132.387 60.0303 131.862 59.7132C131.261 59.3603 131.069 58.7006 131.069 58.0613C131.069 57.5856 131.059 57.2327 131.195 56.7724C131.327 56.3224 131.584 55.9439 131.928 55.6012C132.332 55.2177 132.847 54.9159 133.362 54.6755C134.105 54.338 134.888 54.0874 135.666 53.8521L136.085 53.7294L136.14 58.4295C136.135 58.9921 135.852 59.4319 135.347 59.703Z" fill="white"/>
<path d="M111.088 49.1827C110.618 48.9014 110.093 48.7173 109.557 48.5843C108.906 48.436 108.249 48.3798 107.587 48.3798C106.936 48.3798 106.279 48.4462 105.643 48.5843C105.092 48.7071 104.582 48.9117 104.087 49.1827C103.865 49.3157 103.622 49.4947 103.435 49.6839L105.521 50.4102C105.627 50.2823 105.774 50.134 105.92 50.0573C106.41 49.7504 107.006 49.6481 107.587 49.6481C108.178 49.6481 108.815 49.7453 109.32 50.0624C109.779 50.3437 110.022 50.7579 110.022 51.3001V52.2104L109.815 52.2769C108.678 52.64 107.542 53.0185 106.43 53.4532C105.653 53.7601 104.86 54.1488 104.193 54.6551C103.663 55.054 103.218 55.545 102.935 56.1434C102.622 56.8031 102.526 57.5652 102.526 58.2761C102.521 58.7517 102.637 59.212 102.9 59.6109C103.168 60.0252 103.526 60.3525 103.95 60.598C104.435 60.8997 104.981 61.1043 105.542 61.2322C106.173 61.3805 106.83 61.4521 107.481 61.4521C108.153 61.4521 108.83 61.3907 109.486 61.2526C110.037 61.135 110.572 60.9611 111.062 60.6747C111.461 60.4446 111.815 60.1479 112.073 59.7643C112.32 59.3859 112.431 58.9767 112.431 58.5318L112.436 51.3717C112.436 50.9216 112.315 50.492 112.073 50.1084C111.83 49.7351 111.482 49.4282 111.088 49.1827ZM109.284 59.703C108.754 59.9996 108.143 60.1019 107.537 60.1019C106.926 60.1019 106.319 60.0303 105.799 59.7132C105.198 59.3603 105.001 58.7006 105.001 58.0613C105.001 57.5856 104.986 57.2327 105.127 56.7724C105.259 56.3224 105.521 55.9439 105.865 55.6012C106.264 55.2177 106.779 54.9159 107.289 54.6755C108.037 54.338 108.825 54.0874 109.598 53.8521L110.017 53.7294L110.067 58.4295C110.072 58.9921 109.794 59.4319 109.284 59.703Z" fill="white"/>
<path d="M207.472 49.1827C207.002 48.9014 206.477 48.7173 205.936 48.5843C205.295 48.436 204.633 48.3798 203.971 48.3798C203.32 48.3798 202.663 48.4462 202.027 48.5843C201.476 48.7071 200.956 48.9117 200.471 49.1827C200.244 49.3157 200.006 49.4947 199.814 49.6839L201.9 50.4102C202.012 50.2823 202.158 50.134 202.299 50.0573C202.794 49.7504 203.39 49.6481 203.966 49.6481C204.557 49.6481 205.189 49.7453 205.694 50.0624C206.158 50.3437 206.396 50.7579 206.396 51.3001V52.2104L206.184 52.2769C205.052 52.64 203.921 53.0185 202.805 53.4532C202.022 53.7601 201.229 54.1488 200.562 54.6551C200.037 55.054 199.592 55.545 199.309 56.1434C198.996 56.8031 198.895 57.5652 198.895 58.2761C198.895 58.7517 199.006 59.212 199.274 59.6109C199.542 60.0252 199.9 60.3525 200.324 60.598C200.814 60.8997 201.35 61.1043 201.91 61.2322C202.547 61.3805 203.199 61.4521 203.855 61.4521C204.527 61.4521 205.209 61.3907 205.86 61.2526C206.411 61.135 206.956 60.9611 207.451 60.6747C207.851 60.4446 208.199 60.1479 208.462 59.7643C208.709 59.3859 208.82 58.9767 208.82 58.5318L208.825 51.3717C208.825 50.9216 208.709 50.492 208.462 50.1084C208.209 49.7351 207.866 49.4282 207.472 49.1827ZM205.674 59.703C205.143 59.9996 204.532 60.1019 203.926 60.1019C203.315 60.1019 202.714 60.0303 202.183 59.7132C201.592 59.3603 201.385 58.7006 201.385 58.0613C201.39 57.5856 201.375 57.2327 201.511 56.7724C201.648 56.3224 201.905 55.9439 202.244 55.6012C202.648 55.2177 203.163 54.9159 203.678 54.6755C204.416 54.338 205.204 54.0874 205.977 53.8521L206.396 53.7294L206.451 58.4295C206.462 58.9921 206.179 59.4319 205.674 59.703Z" fill="white"/>
<path d="M98.92 48.6916C98.6321 48.8348 98.3038 49.0343 98.1018 49.29L97.8441 49.602L96.9855 48.5638H95.455L95.45 61.1656H97.8644L97.8694 51.4994C97.8694 50.9522 98.1624 50.5277 98.617 50.2208C99.0968 49.9037 99.6474 49.7452 100.233 49.7452C100.491 49.7452 100.774 49.7503 101.031 49.827L101.789 48.5894C101.37 48.4359 100.834 48.3899 100.41 48.3899C99.91 48.3899 99.3645 48.4564 98.92 48.6916Z" fill="white"/>
<path d="M197.087 48.2975C196.597 48.2975 196.051 48.3537 195.602 48.5839C195.319 48.7322 194.98 48.9419 194.783 49.1874L194.521 49.4994L193.662 48.456H192.137L192.132 61.0681V61.1652H194.551L194.556 51.4991C194.556 50.9416 194.844 50.512 195.304 50.2154C195.794 49.8881 196.339 49.7346 196.925 49.7346C197.178 49.7346 197.471 49.7551 197.723 49.8216L198.481 48.5941C198.461 48.589 198.44 48.589 198.425 48.5788L198.481 48.4918C198.056 48.3179 197.526 48.2975 197.087 48.2975Z" fill="white"/>
<path d="M51.8792 58.9251C51.3589 58.6182 50.9852 58.1784 50.7579 57.6107C50.5255 57.0379 50.3891 56.3321 50.3336 55.4729L50.3437 43.5615L48.0051 43.5564L48 55.9639C48.096 57.1811 48.4344 58.1784 49.0304 58.9558C49.6264 59.7434 50.3235 60.3008 51.1215 60.6435C51.9196 60.9862 52.6823 61.16 53.3996 61.16H56.8292V59.3905H54.0057C53.1066 59.3956 52.3995 59.2422 51.8792 58.9251Z" fill="white"/>
<path d="M186.883 51.7393C187.485 51.279 187.919 50.7982 188.197 50.3021C188.47 49.806 188.616 49.0491 188.636 48.0313C188.601 47.0392 188.323 46.1748 187.818 45.4588C187.303 44.7275 186.616 44.1802 185.752 43.812C184.883 43.4386 183.908 43.2596 182.843 43.2596C181.767 43.2801 180.812 43.546 179.984 44.0217C179.155 44.5024 178.519 45.1213 178.054 45.8987C177.595 46.6709 177.327 47.4841 177.271 48.3433L177.261 61.1446H179.383H179.62L184.126 61.1497C185.116 61.1497 186.01 60.9554 186.813 60.5462C187.621 60.1422 188.257 59.5336 188.722 58.7357C189.197 57.943 189.424 56.9815 189.424 55.8614C189.364 54.01 188.52 52.6343 186.883 51.7393ZM179.625 48.4507C179.681 47.4943 180.004 46.6863 180.605 46.047C181.186 45.3974 182.045 45.0548 183.161 45.0446C183.823 45.0446 184.414 45.1366 184.929 45.3514C185.454 45.5611 185.868 45.8782 186.181 46.2976C186.484 46.7272 186.661 47.2642 186.702 47.9188C186.697 48.7013 186.459 49.6628 185.984 50.2356C185.515 50.8187 184.712 51.146 183.59 51.2278L179.62 51.2227V48.4507H179.625ZM183.969 59.7023H179.615L179.62 52.6905H183.696C184.292 52.6905 184.843 52.7877 185.348 52.9821C185.853 53.1713 186.262 53.4833 186.57 53.9129C186.883 54.3322 187.04 55.3756 187.04 56.0609C187.04 57.8407 186.015 59.5694 183.969 59.7023Z" fill="white"/>
<path d="M84.8471 57.5493C85.9836 57.1811 87.1099 56.8128 88.2262 56.373C89.0041 56.0662 89.8022 55.6826 90.4739 55.1711C91.0094 54.7722 91.4387 54.2761 91.7216 53.6777C92.0448 53.0231 92.1357 52.2559 92.1357 51.5502C92.1357 51.0694 92.0297 50.6194 91.762 50.2102C91.4892 49.8011 91.1306 49.4737 90.7113 49.218C90.2264 48.9214 89.6809 48.727 89.1304 48.5889C88.4939 48.4509 87.8424 48.3741 87.1857 48.3741C86.5139 48.3741 85.8421 48.4355 85.1804 48.5787C84.6349 48.6861 84.0894 48.86 83.5944 49.1413C83.1954 49.3766 82.8418 49.6732 82.5893 50.0619C82.3367 50.425 82.2256 50.8495 82.2256 51.2842V58.4546C82.2256 58.8995 82.3367 59.3189 82.5842 59.7076C82.8368 60.1065 83.1802 60.4083 83.5843 60.6486C84.049 60.9401 84.5743 61.114 85.1148 61.247C85.7563 61.3953 86.423 61.4618 87.0746 61.4618C87.7262 61.4618 88.3879 61.3851 89.0243 61.247C89.5597 61.1243 90.0951 60.9504 90.5649 60.6589C90.9639 60.4185 91.3074 60.1116 91.565 59.7178C91.8125 59.3393 91.9236 58.9149 91.9236 58.4648V57.9636L89.4688 58.4597C89.4688 58.9967 89.2162 59.4161 88.7515 59.7025C88.2515 60.0042 87.6555 60.1065 87.0695 60.1065C86.4836 60.1065 85.8472 60.0196 85.3421 59.6974C84.8774 59.4058 84.6349 58.9865 84.6349 58.4495V57.6107L84.8471 57.5493ZM84.645 51.2842C84.645 50.7216 84.9279 50.292 85.4381 50.0107C85.9684 49.7192 86.5796 49.6169 87.1857 49.6169C87.7969 49.6169 88.398 49.7499 88.9283 50.0619C89.5294 50.4045 89.7264 51.0183 89.7264 51.6576C89.7264 52.123 89.6759 52.6088 89.5395 53.064C89.4082 53.509 89.1455 53.8977 88.8071 54.2301C88.4081 54.6188 87.8878 54.9205 87.3726 55.1558C86.6301 55.4985 85.8472 55.7542 85.0744 55.9843L84.645 56.102V51.2842Z" fill="white"/>
<path d="M66.4414 58.4602C66.4414 59.0228 66.1737 59.4575 65.6635 59.7337C65.1433 59.9996 64.5523 60.107 63.9714 60.107C63.3805 60.107 62.7642 60.0048 62.249 59.703C61.7692 59.4217 61.5015 58.9972 61.5015 58.45L61.5065 48.5435H59.0921L59.082 58.2352C59.082 59.1865 59.38 60.0201 60.1731 60.6185C61.0368 61.268 62.1783 61.4572 63.2441 61.4572C63.8603 61.4572 64.7392 61.4112 65.2999 61.1555C65.608 61.0276 65.9969 60.8333 66.2444 60.6083L66.4717 60.4037L67.3001 61.1504H68.8508L68.8609 48.5537H66.4465L66.4414 58.4602Z" fill="white"/>
<path d="M220.716 56.5065C220.201 55.9848 219.574 55.5706 218.928 55.2381C218.195 54.8443 217.463 54.4607 216.725 54.0823C216.069 53.7396 215.427 53.3458 214.841 52.8855C214.346 52.4917 213.978 51.9803 213.978 51.3256C213.978 50.8142 214.2 50.3744 214.629 50.0675C215.119 49.7095 215.746 49.6174 216.342 49.6174C216.933 49.6174 217.544 49.7197 218.049 50.0573C218.488 50.3539 218.746 50.7631 218.746 51.2949V51.5353L221.09 51.8678V51.2949C221.09 50.3897 220.675 49.7248 219.928 49.2032C218.953 48.5383 217.604 48.3798 216.448 48.3798C215.771 48.3798 215.089 48.4462 214.437 48.5997C213.902 48.7327 213.361 48.9372 212.882 49.2236C212.483 49.4589 212.149 49.7555 211.897 50.1442C211.669 50.492 211.558 50.896 211.548 51.3103C211.548 51.8371 211.674 52.3281 211.977 52.7679C212.286 53.2282 212.69 53.6169 213.139 53.9493C213.503 54.2204 213.892 54.4607 214.286 54.6807C214.695 54.9057 215.114 55.1307 215.544 55.3455C215.968 55.5552 216.387 55.7751 216.816 55.9951C217.236 56.215 217.64 56.4553 218.034 56.7315L218.044 56.7366C218.301 56.9412 218.534 57.1816 218.7 57.468C218.877 57.7749 218.938 58.1226 218.938 58.4755C218.933 59.8769 217.392 60.1223 216.256 60.1223C215.634 60.1223 214.983 60.0201 214.447 59.6876C213.993 59.4063 213.695 59.0023 213.695 58.4653V58.2045L211.275 57.8771V58.4653C211.275 58.9 211.387 59.2938 211.614 59.6672C211.871 60.0559 212.22 60.3678 212.619 60.6082C213.104 60.8997 213.654 61.1043 214.205 61.2322C214.882 61.3907 215.574 61.4674 216.266 61.4674C217.044 61.4674 217.862 61.3907 218.61 61.1759C219.17 61.0071 219.741 60.7668 220.206 60.4241C220.584 60.1428 220.918 59.7899 221.13 59.3654C221.327 58.9716 221.428 58.5574 221.428 58.1175C221.428 57.826 221.372 57.5498 221.241 57.289C221.115 56.9924 220.933 56.7264 220.716 56.5065Z" fill="white"/>
<path d="M226.414 48.564H224V61.1658H226.414V48.564Z" fill="white"/>
<path d="M225.278 44.4464C224.909 44.4464 224.601 44.5589 224.354 44.8351C224.126 45.0857 224 45.3772 224 45.725C224 46.083 224.111 46.3899 224.349 46.6507C224.601 46.9218 224.909 47.0292 225.278 47.0292C225.631 47.0292 225.945 46.9218 226.197 46.6507C226.445 46.3899 226.551 46.0881 226.551 45.725C226.551 45.3721 226.435 45.0755 226.202 44.83C225.95 44.5589 225.637 44.4464 225.278 44.4464Z" fill="white"/>
<path d="M124.887 49.1874C123.922 48.5737 122.7 48.3947 121.564 48.3947C120.932 48.3947 120.215 48.4305 119.614 48.5941C119.2 48.7169 118.786 48.8754 118.437 49.126L118.205 49.2846L117.396 48.5685H115.841L115.836 61.1601H118.255L118.265 51.3098C118.265 50.6961 118.629 50.2819 119.169 50.021C119.735 49.7602 120.336 49.6374 120.978 49.6374C121.599 49.6374 122.225 49.7551 122.801 50.0313C123.331 50.2921 123.685 50.7064 123.685 51.3098L123.675 61.1703H126.094L126.099 51.2434C126.099 50.3381 125.66 49.6732 124.887 49.1874Z" fill="white"/>
<path d="M167.71 49.1878C167.22 48.9065 166.679 48.7173 166.124 48.5843C165.487 48.4462 164.83 48.3798 164.179 48.3798C163.507 48.3798 162.83 48.4462 162.174 48.5843C161.623 48.7071 161.078 48.8912 160.593 49.1827C160.189 49.4077 159.835 49.7248 159.577 50.1084C159.335 50.4715 159.219 50.8653 159.219 51.2949V58.4551C159.219 58.9 159.33 59.3143 159.572 59.6876C159.83 60.0712 160.178 60.3934 160.583 60.6338C161.072 60.9202 161.623 61.1145 162.169 61.2373C162.82 61.3856 163.497 61.4572 164.169 61.4572C164.82 61.4572 165.477 61.3805 166.113 61.2424C166.669 61.1094 167.215 60.9151 167.71 60.6287C168.119 60.3883 168.487 60.0763 168.755 59.6825C169.008 59.3143 169.129 58.9 169.129 58.4602V51.3001C169.129 50.8602 169.018 50.4715 168.765 50.1084C168.487 49.7248 168.124 49.4231 167.71 49.1878ZM166.709 58.4602C166.709 59.0279 166.406 59.437 165.896 59.7132C165.371 60.0047 164.765 60.107 164.169 60.107C163.563 60.107 162.946 60.0047 162.421 59.703C161.931 59.4268 161.638 59.0228 161.638 58.45L161.643 51.2898C161.643 50.717 161.931 50.2925 162.426 50.0061C162.962 49.7146 163.578 49.6123 164.184 49.6123C164.78 49.6123 165.381 49.73 165.906 50.0061C166.416 50.2925 166.709 50.717 166.709 51.2949V58.4602Z" fill="white"/>
<path d="M153.921 44.7123L153.916 49.4124L153.37 48.8958C153.173 48.7271 152.759 48.589 152.506 48.5327C151.946 48.3946 151.33 48.3588 150.754 48.3588C149.668 48.3588 148.4 48.5225 147.506 49.1516C146.774 49.6834 146.425 50.3841 146.425 51.2689L146.42 58.2756C146.415 59.2166 146.753 59.994 147.521 60.5719C148.395 61.2419 149.567 61.3749 150.643 61.4312C152.653 61.5386 156.34 61.1703 156.355 58.516C156.391 53.7494 156.365 48.9879 156.365 44.2162L153.921 44.7123ZM153.911 58.4392C153.906 59.0018 153.628 59.4417 153.123 59.7025C152.587 59.9838 152.001 60.0861 151.405 60.0861C150.789 60.0861 150.168 59.994 149.622 59.7025C149.117 59.4263 148.839 58.9967 148.839 58.429V51.274C148.839 50.691 149.112 50.2563 149.627 49.975C150.173 49.6937 150.799 49.5965 151.415 49.5965C152.006 49.5965 152.602 49.709 153.123 49.9954C153.628 50.2716 153.916 50.7012 153.916 51.274L153.911 58.4392Z" fill="white"/>
<path d="M77.6044 60.1122C76.4932 60.1122 75.7254 59.6161 75.7254 58.4756L75.7305 49.9397L79.6501 49.9448V48.5179H75.7305V45.5874L73.311 46.104L73.306 48.5077H71.8159V49.8579H73.306V58.4756C73.306 59.3757 73.5989 60.148 74.3667 60.685C75.2759 61.3243 76.6447 61.4624 77.7357 61.4624C78.3267 61.4624 78.9126 61.3806 79.4885 61.2374C79.8572 61.1351 80.236 61.0021 80.5795 60.8282L79.0036 59.7644C78.6096 60.0355 78.0843 60.1122 77.6044 60.1122Z" fill="white"/>
<path d="M235.116 60.0707C234.954 60.0912 234.788 60.1014 234.626 60.1014C233.51 60.1014 232.747 59.6155 232.747 58.475L232.757 49.7959V48.3741V44.4054L230.338 44.9168V48.369V49.7192L230.333 58.4648C230.333 59.37 230.621 60.1423 231.393 60.6793C232.298 61.3135 233.672 61.4567 234.763 61.4567C235.182 61.4567 235.586 61.4056 236 61.3391L235.116 60.0707Z" fill="white"/>
</svg>
